<svg xmlns="http://www.w3.org/2000/svg" version="1.1" xmlns:xlink="http://www.w3.org/1999/xlink" xmlns:svgjs="http://svgjs.dev/svgjs" width="1500" height="507" viewBox="0 0 1500 507"><g transform="matrix(1,0,0,1,-0.9090909090909918,-0.020062861810259847)"><svg viewBox="0 0 396 134" data-background-color="#ffffff" preserveAspectRatio="xMidYMid meet" height="507" width="1500" xmlns="http://www.w3.org/2000/svg" xmlns:xlink="http://www.w3.org/1999/xlink"><g id="tight-bounds" transform="matrix(1,0,0,1,0.2400000000000091,0.005302610419278153)"><svg viewBox="0 0 395.52 133.98939477916144" height="133.98939477916144" width="395.52"><g><svg viewBox="0 0 739.4941994358146 250.51673802868456" height="133.98939477916144" width="395.52"><g><rect width="15.963629162250683" height="250.51673802868456" x="286.2209651367819" y="0" fill="#0c3a5e" opacity="1" stroke-width="0" stroke="transparent" fill-opacity="1" class="rect-yte-0" data-fill-palette-color="primary" rx="1%" id="yte-0" data-palette-color="#0c3a5e"></rect></g><g transform="matrix(1,0,0,1,343.9741994358145,0.6231759652454656)"><svg viewBox="0 0 395.52000000000004 249.27038609819363" height="249.27038609819363" width="395.52000000000004"><g id="textblocktransform"><svg viewBox="0 0 395.52000000000004 249.27038609819363" height="249.27038609819363" width="395.52000000000004" id="textblock"><g><svg viewBox="0 0 395.52000000000004 177.0175923718713" height="177.0175923718713" width="395.52000000000004"><g transform="matrix(1,0,0,1,0,0)"><svg width="395.52000000000004" viewBox="2.5 -37.05 83.9 37.55" height="177.0175923718713" data-palette-color="#0c3a5e"><g class="wordmark-text-0" data-fill-palette-color="primary" id="text-0"><path d="M18.05 0L11.9 0 2.5-36.5 7.15-36.5 13.35-11.7Q14-9.1 14.45-6.88 14.9-4.65 15.1-3.5L15.1-3.5Q15.3-4.65 15.73-6.88 16.15-9.1 16.8-11.7L16.8-11.7 22.95-36.5 27.5-36.5 18.05 0ZM54.75 0L35.25 0 35.25-4.1 42.7-4.1 42.7-32.4 35.25-32.4 35.25-36.5 54.75-36.5 54.75-32.4 47.3-32.4 47.3-4.1 54.75-4.1 54.75 0ZM75.2 0.5L75.2 0.5Q71.59 0.5 69.02-0.7 66.45-1.9 65.05-4.15 63.65-6.4 63.6-9.5L63.6-9.5 68.09-9.5Q68.09-6.75 69.97-5.15 71.84-3.55 75.2-3.55L75.2-3.55Q78.34-3.55 80.12-5.1 81.9-6.65 81.9-9.4L81.9-9.4Q81.9-11.6 80.72-13.25 79.55-14.9 77.34-15.55L77.34-15.55 72.4-17.1Q68.65-18.25 66.62-20.95 64.59-23.65 64.59-27.3L64.59-27.3Q64.59-30.25 65.92-32.43 67.25-34.6 69.65-35.83 72.05-37.05 75.3-37.05L75.3-37.05Q80.09-37.05 83-34.38 85.9-31.7 85.95-27.25L85.95-27.25 81.45-27.25Q81.45-29.95 79.82-31.48 78.2-33 75.25-33L75.25-33Q72.34-33 70.72-31.6 69.09-30.2 69.09-27.7L69.09-27.7Q69.09-25.45 70.3-23.8 71.5-22.15 73.75-21.45L73.75-21.45 78.75-19.85Q82.4-18.7 84.4-15.95 86.4-13.2 86.4-9.5L86.4-9.5Q86.4-6.5 85-4.25 83.59-2 81.07-0.75 78.55 0.5 75.2 0.5Z" fill="#0c3a5e" data-fill-palette-color="primary"></path></g></svg></g></svg></g><g transform="matrix(1,0,0,1,0,218.8071975086532)"><svg viewBox="0 0 375.744 30.463188589540415" height="30.463188589540415" width="375.744"><g transform="matrix(1,0,0,1,0,0)"><svg width="375.744" viewBox="0.5 -37 599.39 48.6" height="30.463188589540415" data-palette-color="#0c3a5e"><path d="M18.7 0L13.35 0 0.5-33.75 5.15-35.55 16.15-5.2 27.2-35.4 31.5-33.75 18.7 0ZM44.15 0.6L44.15 0.6Q38.55 0.6 35.27-2.98 32-6.55 32-13L32-13Q32-16.9 33.47-19.98 34.95-23.05 37.6-24.83 40.25-26.6 43.75-26.6L43.75-26.6Q47.5-26.6 49.97-24.98 52.45-23.35 53.7-20.6 54.95-17.85 54.95-14.55L54.95-14.55Q54.95-12.8 54.8-11.15L54.8-11.15 36.6-11.15Q37.05-7.5 39.15-5.45 41.25-3.4 44.7-3.4L44.7-3.4Q46.95-3.4 48.75-3.88 50.55-4.35 52.2-5.1L52.2-5.1 53.25-1.25Q51.45-0.45 49.2 0.08 46.95 0.6 44.15 0.6ZM36.55-14.8L36.55-14.8 50.8-14.8Q50.8-18.6 48.9-20.65 47-22.7 43.65-22.7L43.65-22.7Q40.75-22.7 38.85-20.68 36.95-18.65 36.55-14.8ZM65.45 0L60.95 0 60.95-37 65.45-37 65.45-21.85Q66.85-23.9 69-25.25 71.15-26.6 74.05-26.6L74.05-26.6Q78.45-26.6 80.62-23.95 82.8-21.3 82.8-16.95L82.8-16.95 82.8 0 78.3 0 78.3-16.45Q78.3-19.25 77-20.95 75.7-22.65 73.35-22.65L73.35-22.65Q71.05-22.65 68.97-21.03 66.9-19.4 65.45-17.2L65.45-17.2 65.45 0ZM95.04 0L90.54 0 90.54-26 95.04-26 95.04 0ZM92.79-30.45L92.79-30.45Q91.49-30.45 90.57-31.4 89.64-32.35 89.64-33.6L89.64-33.6Q89.64-35.05 90.49-35.9 91.34-36.75 92.79-36.75L92.79-36.75Q94.09-36.75 95.02-35.83 95.94-34.9 95.94-33.6L95.94-33.6Q95.94-32.2 95.09-31.33 94.24-30.45 92.79-30.45ZM113.54 0.6L113.54 0.6Q109.84 0.6 107.07-1.13 104.29-2.85 102.79-5.93 101.29-9 101.29-13L101.29-13Q101.29-16.75 102.82-19.85 104.34-22.95 107.19-24.78 110.04-26.6 113.89-26.6L113.89-26.6Q116.09-26.6 117.77-26.2 119.44-25.8 120.99-25.05L120.99-25.05 119.64-21.25Q118.24-21.95 116.97-22.28 115.69-22.6 114.14-22.6L114.14-22.6Q110.64-22.6 108.27-20.08 105.89-17.55 105.89-13.1L105.89-13.1Q105.89-10.4 106.89-8.2 107.89-6 109.67-4.7 111.44-3.4 113.84-3.4L113.84-3.4Q115.74-3.4 117.09-3.83 118.44-4.25 119.99-5.05L119.99-5.05 121.39-1.25Q119.84-0.4 117.92 0.1 115.99 0.6 113.54 0.6ZM134.04 0.6L134.04 0.6Q131.74 0.6 129.89-0.28 128.04-1.15 126.96-3.1 125.89-5.05 125.89-8.15L125.89-8.15 125.89-37 130.39-37 130.39-8.6Q130.39-5.9 131.51-4.6 132.64-3.3 134.64-3.3L134.64-3.3Q135.59-3.3 136.51-3.53 137.44-3.75 138.09-4.05L138.09-4.05 139.19-0.4Q138.29 0 136.96 0.3 135.64 0.6 134.04 0.6ZM153.09 0.6L153.09 0.6Q147.49 0.6 144.21-2.98 140.94-6.55 140.94-13L140.94-13Q140.94-16.9 142.41-19.98 143.89-23.05 146.54-24.83 149.19-26.6 152.69-26.6L152.69-26.6Q156.44-26.6 158.91-24.98 161.39-23.35 162.64-20.6 163.89-17.85 163.89-14.55L163.89-14.55Q163.89-12.8 163.74-11.15L163.74-11.15 145.54-11.15Q145.99-7.5 148.09-5.45 150.19-3.4 153.64-3.4L153.64-3.4Q155.89-3.4 157.69-3.88 159.49-4.35 161.14-5.1L161.14-5.1 162.19-1.25Q160.39-0.45 158.14 0.08 155.89 0.6 153.09 0.6ZM145.49-14.8L145.49-14.8 159.74-14.8Q159.74-18.6 157.84-20.65 155.94-22.7 152.59-22.7L152.59-22.7Q149.69-22.7 147.79-20.68 145.89-18.65 145.49-14.8ZM190.13 0L185.38 0 185.38-35 190.13-35 190.13 0ZM203.13 0L198.63 0 198.63-26 202.98-26 202.98-21.65Q204.38-23.75 206.55-25.18 208.73-26.6 211.73-26.6L211.73-26.6Q216.13-26.6 218.3-23.95 220.48-21.3 220.48-16.95L220.48-16.95 220.48 0 215.98 0 215.98-16.45Q215.98-19.25 214.65-20.95 213.33-22.65 210.98-22.65L210.98-22.65Q208.68-22.65 206.63-21.03 204.58-19.4 203.13-17.2L203.13-17.2 203.13 0ZM235.23 0.6L235.23 0.6Q232.28 0.6 229.9-0.15 227.53-0.9 225.98-2.1L225.98-2.1 227.88-5.85Q229.18-4.75 231.15-4.03 233.13-3.3 235.38-3.3L235.38-3.3Q238.18-3.3 239.6-4.23 241.03-5.15 241.03-6.6L241.03-6.6Q241.03-7.65 240.5-8.45 239.98-9.25 238.58-10.03 237.18-10.8 234.53-11.7L234.53-11.7Q230.88-12.95 229.05-14.68 227.23-16.4 227.23-19.45L227.23-19.45Q227.23-22.45 229.85-24.53 232.48-26.6 237.13-26.6L237.13-26.6Q239.63-26.6 241.58-26.08 243.53-25.55 245.08-24.75L245.08-24.75 243.83-21.05Q242.48-21.85 240.75-22.35 239.03-22.85 236.93-22.85L236.93-22.85Q234.33-22.85 232.98-21.8 231.63-20.75 231.63-19.5L231.63-19.5Q231.63-18.3 232.68-17.45 233.73-16.6 236.78-15.6L236.78-15.6Q241.73-13.95 243.68-11.95 245.63-9.95 245.63-6.95L245.63-6.95Q245.63-3.45 242.8-1.43 239.98 0.6 235.23 0.6ZM256.32 11L251.82 11 251.82-19.35Q251.82-21.05 251-21.78 250.17-22.5 248.87-22.5L248.87-22.5 249.82-26Q254.42-26 255.57-22.35L255.57-22.35Q256.07-23.1 257.2-24.1 258.32-25.1 260-25.85 261.67-26.6 263.82-26.6L263.82-26.6Q266.82-26.6 269.45-25.03 272.07-23.45 273.67-20.48 275.27-17.5 275.27-13.25L275.27-13.25Q275.27-9.1 273.67-5.98 272.07-2.85 269.5-1.13 266.92 0.6 263.92 0.6L263.92 0.6Q261.62 0.6 259.62-0.33 257.62-1.25 256.32-2.45L256.32-2.45 256.32 11ZM263.02-3.4L263.02-3.4Q266.42-3.4 268.55-6.08 270.67-8.75 270.67-13.1L270.67-13.1Q270.67-16.1 269.6-18.25 268.52-20.4 266.75-21.55 264.97-22.7 262.82-22.7L262.82-22.7Q260.67-22.7 258.95-21.63 257.22-20.55 256.32-19.3L256.32-19.3 256.32-6.5Q257.62-5.15 259.32-4.28 261.02-3.4 263.02-3.4ZM291.92 0.6L291.92 0.6Q286.32 0.6 283.05-2.98 279.77-6.55 279.77-13L279.77-13Q279.77-16.9 281.25-19.98 282.72-23.05 285.37-24.83 288.02-26.6 291.52-26.6L291.52-26.6Q295.27-26.6 297.75-24.98 300.22-23.35 301.47-20.6 302.72-17.85 302.72-14.55L302.72-14.55Q302.72-12.8 302.57-11.15L302.57-11.15 284.37-11.15Q284.82-7.5 286.92-5.45 289.02-3.4 292.47-3.4L292.47-3.4Q294.72-3.4 296.52-3.88 298.32-4.35 299.97-5.1L299.97-5.1 301.02-1.25Q299.22-0.45 296.97 0.08 294.72 0.6 291.92 0.6ZM284.32-14.8L284.32-14.8 298.57-14.8Q298.57-18.6 296.67-20.65 294.77-22.7 291.42-22.7L291.42-22.7Q288.52-22.7 286.62-20.68 284.72-18.65 284.32-14.8ZM319.22 0.6L319.22 0.6Q315.52 0.6 312.74-1.13 309.97-2.85 308.47-5.93 306.97-9 306.97-13L306.97-13Q306.97-16.75 308.49-19.85 310.02-22.95 312.87-24.78 315.72-26.6 319.57-26.6L319.57-26.6Q321.77-26.6 323.44-26.2 325.12-25.8 326.67-25.05L326.67-25.05 325.32-21.25Q323.92-21.95 322.64-22.28 321.37-22.6 319.82-22.6L319.82-22.6Q316.32-22.6 313.94-20.08 311.57-17.55 311.57-13.1L311.57-13.1Q311.57-10.4 312.57-8.2 313.57-6 315.34-4.7 317.12-3.4 319.52-3.4L319.52-3.4Q321.42-3.4 322.77-3.83 324.12-4.25 325.67-5.05L325.67-5.05 327.07-1.25Q325.52-0.4 323.59 0.1 321.67 0.6 319.22 0.6ZM341.42 0.6L341.42 0.6Q337.67 0.6 335.49-1.88 333.32-4.35 333.32-8.95L333.32-8.95 333.32-21.15 328.82-21.15 328.82-25.05 333.42-25.05 334.37-33.25 337.82-33.25 337.82-25.05 345.02-25.05 345.02-21.15 337.82-21.15 337.82-8.6Q337.82-5.7 339.04-4.55 340.27-3.4 341.97-3.4L341.97-3.4Q343.22-3.4 344.34-3.8 345.47-4.2 346.42-4.75L346.42-4.75 347.67-1.15Q346.67-0.55 344.97 0.03 343.27 0.6 341.42 0.6ZM356.66 0L352.16 0 352.16-26 356.66-26 356.66 0ZM354.41-30.45L354.41-30.45Q353.11-30.45 352.19-31.4 351.26-32.35 351.26-33.6L351.26-33.6Q351.26-35.05 352.11-35.9 352.96-36.75 354.41-36.75L354.41-36.75Q355.71-36.75 356.64-35.83 357.56-34.9 357.56-33.6L357.56-33.6Q357.56-32.2 356.71-31.33 355.86-30.45 354.41-30.45ZM375.61 0.6L375.61 0.6Q371.91 0.6 368.96-1.13 366.01-2.85 364.34-5.93 362.66-9 362.66-13L362.66-13Q362.66-17.2 364.36-20.25 366.06-23.3 369.01-24.95 371.96-26.6 375.61-26.6L375.61-26.6Q379.26-26.6 382.19-24.95 385.11-23.3 386.84-20.28 388.56-17.25 388.56-13.1L388.56-13.1Q388.56-8.95 386.86-5.88 385.16-2.8 382.24-1.1 379.31 0.6 375.61 0.6ZM375.61-3.4L375.61-3.4Q379.56-3.4 381.76-6.08 383.96-8.75 383.96-13L383.96-13Q383.96-15.6 382.86-17.78 381.76-19.95 379.89-21.28 378.01-22.6 375.61-22.6L375.61-22.6Q371.66-22.6 369.46-20 367.26-17.4 367.26-13.1L367.26-13.1Q367.26-10.5 368.36-8.28 369.46-6.05 371.34-4.73 373.21-3.4 375.61-3.4ZM399.06 0L394.56 0 394.56-26 398.91-26 398.91-21.65Q400.31-23.75 402.48-25.18 404.66-26.6 407.66-26.6L407.66-26.6Q412.06-26.6 414.23-23.95 416.41-21.3 416.41-16.95L416.41-16.95 416.41 0 411.91 0 411.91-16.45Q411.91-19.25 410.58-20.95 409.26-22.65 406.91-22.65L406.91-22.65Q404.61-22.65 402.56-21.03 400.51-19.4 399.06-17.2L399.06-17.2 399.06 0ZM448.35 0.6L448.35 0.6Q444.7 0.6 441.7-0.38 438.7-1.35 436.65-2.95L436.65-2.95 439.05-6.95Q440.85-5.45 443.1-4.5 445.35-3.55 448.35-3.55L448.35-3.55Q451.95-3.55 454.05-5.05 456.15-6.55 456.15-9.1L456.15-9.1Q456.15-10.55 455.55-11.68 454.95-12.8 453.23-13.88 451.5-14.95 448.15-16.2L448.15-16.2Q444.55-17.6 442.4-19.03 440.25-20.45 439.33-22.28 438.4-24.1 438.4-26.6L438.4-26.6Q438.4-29.1 439.78-31.13 441.15-33.15 443.83-34.38 446.5-35.6 450.3-35.6L450.3-35.6Q453.4-35.6 455.88-34.98 458.35-34.35 460.7-33.2L460.7-33.2 458.95-29.15Q457.25-30.15 454.98-30.83 452.7-31.5 450.2-31.5L450.2-31.5Q446.9-31.5 445-30.2 443.1-28.9 443.1-26.85L443.1-26.85Q443.1-25.55 443.65-24.55 444.2-23.55 445.83-22.6 447.45-21.65 450.7-20.45L450.7-20.45Q454.6-19 456.88-17.4 459.15-15.8 460.1-13.93 461.05-12.05 461.05-9.65L461.05-9.65Q461.05-6.4 459.43-4.1 457.8-1.8 454.93-0.6 452.05 0.6 448.35 0.6ZM466.95 11.6L466.95 11.6Q465.45 11.6 464.33 11.3 463.2 11 462.55 10.6L462.55 10.6 463.55 6.85Q464.15 7.2 465.05 7.45 465.95 7.7 467.05 7.7L467.05 7.7Q469.15 7.7 470.8 6.35 472.45 5 473.95 1.05L473.95 1.05 475.1-1.95 472.7-1.95 462.55-24.8 466.55-26.6 476.25-4.95 483.8-26.4 487.95-24.8 478.4 1.3Q476.95 5.3 475.25 7.55 473.55 9.8 471.5 10.7 469.45 11.6 466.95 11.6ZM499.45 0.6L499.45 0.6Q496.5 0.6 494.12-0.15 491.75-0.9 490.2-2.1L490.2-2.1 492.1-5.85Q493.4-4.75 495.37-4.03 497.35-3.3 499.6-3.3L499.6-3.3Q502.4-3.3 503.82-4.23 505.25-5.15 505.25-6.6L505.25-6.6Q505.25-7.65 504.72-8.45 504.2-9.25 502.8-10.03 501.4-10.8 498.75-11.7L498.75-11.7Q495.1-12.95 493.27-14.68 491.45-16.4 491.45-19.45L491.45-19.45Q491.45-22.45 494.07-24.53 496.7-26.6 501.35-26.6L501.35-26.6Q503.85-26.6 505.8-26.08 507.75-25.55 509.3-24.75L509.3-24.75 508.05-21.05Q506.7-21.85 504.97-22.35 503.25-22.85 501.15-22.85L501.15-22.85Q498.55-22.85 497.2-21.8 495.85-20.75 495.85-19.5L495.85-19.5Q495.85-18.3 496.9-17.45 497.95-16.6 501-15.6L501-15.6Q505.95-13.95 507.9-11.95 509.85-9.95 509.85-6.95L509.85-6.95Q509.85-3.45 507.02-1.43 504.2 0.6 499.45 0.6ZM524.95 0.6L524.95 0.6Q521.2 0.6 519.02-1.88 516.85-4.35 516.85-8.95L516.85-8.95 516.85-21.15 512.35-21.15 512.35-25.05 516.95-25.05 517.89-33.25 521.35-33.25 521.35-25.05 528.55-25.05 528.55-21.15 521.35-21.15 521.35-8.6Q521.35-5.7 522.57-4.55 523.8-3.4 525.5-3.4L525.5-3.4Q526.75-3.4 527.87-3.8 529-4.2 529.95-4.75L529.95-4.75 531.2-1.15Q530.2-0.55 528.5 0.03 526.8 0.6 524.95 0.6ZM545.09 0.6L545.09 0.6Q539.49 0.6 536.22-2.98 532.94-6.55 532.94-13L532.94-13Q532.94-16.9 534.42-19.98 535.89-23.05 538.54-24.83 541.19-26.6 544.69-26.6L544.69-26.6Q548.44-26.6 550.92-24.98 553.39-23.35 554.64-20.6 555.89-17.85 555.89-14.55L555.89-14.55Q555.89-12.8 555.74-11.15L555.74-11.15 537.54-11.15Q537.99-7.5 540.09-5.45 542.19-3.4 545.64-3.4L545.64-3.4Q547.89-3.4 549.69-3.88 551.49-4.35 553.14-5.1L553.14-5.1 554.19-1.25Q552.39-0.45 550.14 0.08 547.89 0.6 545.09 0.6ZM537.49-14.8L537.49-14.8 551.74-14.8Q551.74-18.6 549.84-20.65 547.94-22.7 544.59-22.7L544.59-22.7Q541.69-22.7 539.79-20.68 537.89-18.65 537.49-14.8ZM566.39 0L561.89 0 561.89-26 566.24-26 566.24-21.65Q567.64-23.75 569.79-25.18 571.94-26.6 574.69-26.6L574.69-26.6Q577.79-26.6 579.76-25.1 581.74-23.6 582.54-21.1L582.54-21.1Q584.09-23.4 586.22-25 588.34-26.6 591.49-26.6L591.49-26.6Q595.74-26.6 597.81-23.93 599.89-21.25 599.89-16.95L599.89-16.95 599.89 0 595.39 0 595.39-16.6Q595.39-19.3 594.14-20.98 592.89-22.65 590.69-22.65L590.69-22.65Q588.44-22.65 586.51-20.98 584.59-19.3 583.14-17.05L583.14-17.05 583.14 0 578.64 0 578.64-16.6Q578.64-19.3 577.39-20.98 576.14-22.65 573.94-22.65L573.94-22.65Q571.74-22.65 569.79-21.03 567.84-19.4 566.39-17.2L566.39-17.2 566.39 0Z" opacity="1" transform="matrix(1,0,0,1,0,0)" fill="#0c3a5e" class="slogan-text-1" data-fill-palette-color="secondary" id="text-1"></path></svg></g></svg></g></svg></g></svg></g><g transform="matrix(1,0,0,1,0,17.372881789891196)"><svg viewBox="0 0 244.43136 215.77097444890217" height="215.77097444890217" width="244.43136"><g><svg xmlns="http://www.w3.org/2000/svg" xmlns:xlink="http://www.w3.org/1999/xlink" version="1.1" x="0" y="0" viewBox="4.809063515031308 9.007 91.27193648496869 80.57" enable-background="new 0 0 100 100" xml:space="preserve" height="215.77097444890217" width="244.43136" class="icon-icon-0" data-fill-palette-color="accent" id="icon-0"><g fill="#0c3a5e" data-fill-palette-color="accent"><path d="M31.771 28.241A6.751 6.751 0 1 1 45.271 28.241 6.751 6.751 0 0 1 31.77 28.241M96.081 89.577L90.287 67.31S85.12 49.73 63.173 48.226L62.212 48.235V45.716A21 21 0 0 0 64.569 44.757C65.476 44.357 66.397 43.895 67.325 43.352L67.195 43.263C72.339 39.822 75.691 34.241 75.691 27.935 75.691 17.482 66.492 9.007 55.144 9.007 50.187 9.007 45.642 10.621 42.095 13.315 48.983 14.975 54.103 21.173 54.103 28.571 54.103 33.535 51.791 37.949 48.194 40.825A15.9 15.9 0 0 1 43.033 43.473C43.577 43.89 45.785 45.2 49.065 46.051V48.3L47.215 48.311C31.825 48.495 23.802 57.834 23.802 57.834L29.979 41.442C28.567 40.53 27.308 39.532 26.257 38.418L30.151 35.84C32.224 38.12 35.201 39.561 38.518 39.561 44.762 39.561 49.841 34.481 49.841 28.24 49.841 21.996 44.761 16.916 38.518 16.916S27.196 21.996 27.196 28.24C27.196 29.53 27.42 30.763 27.821 31.919L24.526 34.099C22.955 32.515 19.289 32.899 15.977 35.092 12.663 37.287 10.875 40.511 11.721 42.574L8.413 44.765 8.426 44.784A2.27 2.27 0 0 0 7.96 47.796 2.274 2.274 0 0 0 10.916 48.546L10.93 48.564 16.142 45.115 6.084 74.57C4.576 77.919 4.125 82.264 6.297 85.252 7.951 87.528 10.567 88.853 13.279 88.81 15.665 88.769 18.55 87.037 19.965 84.96L30.629 67.194 28.818 89.577H77.644L78.498 75.276 81.465 89.577z" fill="#0c3a5e" data-fill-palette-color="accent"></path></g></svg></g></svg></g></svg></g><defs></defs></svg><rect width="395.52" height="133.98939477916144" fill="none" stroke="none" visibility="hidden"></rect></g></svg></g></svg>